PathFileType	4	(X/Y/Z)	/Users/itak/Documents/Research/Walk-IL/dataset/trc/00096_00006.trc
DataRate	CameraRate	NumFrames	NumMarkers	Units	OrigDataRate	OrigDataStartFrame	OrigNumFrames
100.000000	100.000000	4	53	mm	100.000000	0	519
Frame#	Time	RPSI			LPSI			L3			STRN			T10			C7			CLAV			RBAK			LBAK			LSHO			LUPA			LAEL			LAOL			LWTS			LWPS			LFRA			LIFD			LHPS			LHTS			RSHO			RUPA			RAEL			RAOL			RWTS			RWPS			RFRA			RIFD			RHTS			RHPS			RBHD			LFHD			RFHD			LBHD			LHIP			RHIP			RASI			LASI			LKNE			LTHI			LANK			LTIP			LTOE			LMT1			LMT5			LHEE			RKNE			RTHI			RANK			RTIP			RTOE			RMT1			RMT5			RHEE			
		X1	Y1	Z1	X2	Y2	Z2	X3	Y3	Z3	X4	Y4	Z4	X5	Y5	Z5	X6	Y6	Z6	X7	Y7	Z7	X8	Y8	Z8	X9	Y9	Z9	X10	Y10	Z10	X11	Y11	Z11	X12	Y12	Z12	X13	Y13	Z13	X14	Y14	Z14	X15	Y15	Z15	X16	Y16	Z16	X17	Y17	Z17	X18	Y18	Z18	X19	Y19	Z19	X20	Y20	Z20	X21	Y21	Z21	X22	Y22	Z22	X23	Y23	Z23	X24	Y24	Z24	X25	Y25	Z25	X26	Y26	Z26	X27	Y27	Z27	X28	Y28	Z28	X29	Y29	Z29	X30	Y30	Z30	X31	Y31	Z31	X32	Y32	Z32	X33	Y33	Z33	X34	Y34	Z34	X35	Y35	Z35	X36	Y36	Z36	X37	Y37	Z37	X38	Y38	Z38	X39	Y39	Z39	X40	Y40	Z40	X41	Y41	Z41	X42	Y42	Z42	X43	Y43	Z43	X44	Y44	Z44	X45	Y45	Z45	X46	Y46	Z46	X47	Y47	Z47	X48	Y48	Z48	X49	Y49	Z49	X50	Y50	Z50	X51	Y51	Z51	X52	Y52	Z52	X53	Y53	Z53	

1	0	-1361.88671875	1036.780151367188	35.64028167724609	-1369.4765625	1029.546508789062	-139.6190948486328	-1361.396362304688	1084.998291015625	-58.41723251342773	-1115.130981445312	1287.60693359375	-49.61027908325195	-1382.935302734375	1219.85302734375	-63.33059692382812	-1325.628051757812	1487.191650390625	-61.97655487060547	-1146.6220703125	1402.156127929688	-52.50447463989258	-1390.826782226562	1347.643188476562	9.639041900634766	-1340.899169921875	1449.819213867188	-165.4154968261719	-1233.363037109375	1456.178588867188	-232.6189270019531	-1246.0126953125	1328.32470703125	-311.4722900390625	-1226.13134765625	1114.793212890625	-329.8157348632812	-1290.681640625	1098.503662109375	-245.6601867675781	-1135.222045898438	874.7295532226562	-269.768798828125	-1193.759033203125	863.9385375976562	-329.32861328125	-1205.618286132812	1005.563232421875	-338.3093872070312	-1125.568359375	688.2177124023438	-250.6097869873047	-1159.459350585938	783.2757568359375	-325.8625793457031	-1114.255981445312	791.9076538085938	-273.3323974609375	-1270.45947265625	1447.6376953125	117.302490234375	-1281.017822265625	1374.994873046875	179.7357330322266	-1300.251831054688	1106.987915039062	197.7797698974609	-1284.868408203125	1089.349243164062	102.1999740600586	-1154.381591796875	859.2782592773438	159.5761260986328	-1225.3662109375	842.4862060546875	208.5341796875	-1285.442138671875	1028.664794921875	202.5749969482422	-1149.5576171875	673.4000244140625	137.3502960205078	-1126.62548828125	759.4669189453125	159.8385620117188	-1185.688598632812	754.5177612304688	211.6249389648438	-1314.08984375	1643.413452148438	1.235821008682251	-1121.317993164062	1714.9423828125	-83.40604400634766	-1156.623168945312	1702.090576171875	36.76119995117188	-1285.454345703125	1663.83984375	-132.3037567138672	-1263.6279296875	964.1953735351562	-226.4390869140625	-1293.79296875	966.8475341796875	114.8695831298828	-1170.423461914062	982.0545043945312	91.52388763427734	-1151.16259765625	975.240478515625	-176.3189849853516	-1192.575073242188	502.1669311523438	-180.9431762695312	-1222.636352539062	642.319580078125	-214.6299285888672	-1333.251953125	53.18455505371094	-201.6504516601562	-1268.995971679688	265.693115234375	-205.4461822509766	-1126.20947265625	45.74089431762695	-201.3515625	-1173.66796875	45.86911010742188	-146.4030303955078	-1231.907470703125	42.48139572143555	-242.4374084472656	-1383.461669921875	51.970703125	-123.7463226318359	-1213.327026367188	520.7346801757812	103.0275955200195	-1209.620239257812	793.17822265625	126.6497421264648	-1326.947509765625	48.73513793945312	110.7408294677734	-1240.006713867188	398.7991943359375	111.6630783081055	-1108.386962890625	42.72082138061523	76.86229705810547	-1170.685180664062	45.7416877746582	36.60329055786133	-1201.209716796875	53.11573028564453	129.3048858642578	-1372.796752929688	47.87078857421875	53.45951461791992	
2	0.01	-1361.901733398438	1036.779541015625	35.64959335327148	-1369.489379882812	1029.546508789062	-139.6109619140625	-1361.414672851562	1085.010498046875	-58.41277313232422	-1115.182739257812	1287.59423828125	-49.54775238037109	-1382.952514648438	1219.863159179688	-63.33057022094727	-1325.60888671875	1487.200561523438	-61.95916366577148	-1146.6357421875	1402.131225585938	-52.43094253540039	-1390.836059570312	1347.648803710938	9.655082702636719	-1340.888305664062	1449.839965820312	-165.3894653320312	-1233.312377929688	1456.19921875	-232.5588684082031	-1245.980346679688	1328.3369140625	-311.4180297851562	-1226.105102539062	1114.781616210938	-329.6519470214844	-1290.6865234375	1098.5205078125	-245.5721740722656	-1135.166381835938	874.7950439453125	-269.51416015625	-1193.58251953125	863.9391479492188	-329.0401306152344	-1205.585693359375	1005.557556152344	-338.152587890625	-1125.580078125	688.30712890625	-250.22607421875	-1159.379638671875	783.2853393554688	-325.54833984375	-1113.313842773438	792.177490234375	-273.4711608886719	-1270.481811523438	1447.625854492188	117.3510894775391	-1281.063720703125	1374.978393554688	179.7771606445312	-1300.290283203125	1106.981323242188	197.8414001464844	-1284.8544921875	1089.329467773438	102.2604446411133	-1154.466186523438	859.24072265625	159.7537841796875	-1225.376708984375	842.4832153320312	208.7022094726562	-1285.468505859375	1028.667114257812	202.6578826904297	-1149.5927734375	673.3251342773438	137.6578674316406	-1126.666259765625	759.345947265625	160.0471954345703	-1185.760375976562	754.4736938476562	211.9108581542969	-1314.030639648438	1643.48486328125	1.282994508743286	-1121.263061523438	1714.919555664062	-83.47325134277344	-1156.588623046875	1702.105224609375	36.70597457885742	-1285.416015625	1663.794311523438	-132.3025665283203	-1263.646850585938	964.1947631835938	-226.4383239746094	-1293.81787109375	966.85498046875	114.8884353637695	-1170.437377929688	982.0657958984375	91.53945159912109	-1151.180053710938	975.248779296875	-176.3034057617188	-1192.572509765625	502.1713256835938	-180.9360961914062	-1222.54296875	642.2952880859375	-214.5883636474609	-1333.24755859375	53.18533325195312	-201.6534271240234	-1268.993041992188	265.6983337402344	-205.4460754394531	-1126.215454101562	45.74481201171875	-201.3545684814453	-1173.714965820312	45.89923095703125	-146.41943359375	-1231.906616210938	42.48772048950195	-242.4444885253906	-1383.462890625	51.96926498413086	-123.7452621459961	-1213.33154296875	520.7353515625	103.0261840820312	-1209.59375	793.2027587890625	126.6710052490234	-1326.94482421875	48.71256256103516	110.7560577392578	-1239.997924804688	398.8093872070312	111.671272277832	-1108.38671875	42.72030258178711	76.86162567138672	-1170.684204101562	45.73758697509766	36.61120223999023	-1201.295776367188	52.99253463745117	129.2339935302734	-1372.80615234375	47.86875534057617	53.46801376342773	
3	0.02	-1361.9248046875	1036.778564453125	35.65873718261719	-1369.505859375	1029.546264648438	-139.6041870117188	-1361.436157226562	1085.023803710938	-58.41012191772461	-1115.251953125	1287.576416015625	-49.46952056884766	-1382.969848632812	1219.8740234375	-63.33052062988281	-1325.587646484375	1487.209716796875	-61.93949127197266	-1146.648803710938	1402.103271484375	-52.34241104125977	-1390.847045898438	1347.654541015625	9.673457145690918	-1340.87451171875	1449.863891601562	-165.3605804443359	-1233.24853515625	1456.22216796875	-232.4866027832031	-1245.93505859375	1328.348510742188	-311.3511047363281	-1226.066772460938	1114.761840820312	-329.4535827636719	-1290.693115234375	1098.537719726562	-245.4645843505859	-1135.074096679688	874.8754272460938	-269.1772155761719	-1193.354858398438	863.9361572265625	-328.6746520996094	-1205.544311523438	1005.546447753906	-337.9531555175781	-1125.583251953125	688.4341430664062	-249.7430267333984	-1159.260620117188	783.2959594726562	-325.1423034667969	-1112.385864257812	792.4522094726562	-273.4823913574219	-1270.51220703125	1447.613891601562	117.408821105957	-1281.123779296875	1374.9599609375	179.8263702392578	-1300.336791992188	1106.9755859375	197.9189910888672	-1284.839599609375	1089.302856445312	102.3329086303711	-1154.552490234375	859.2015991210938	159.9707641601562	-1225.388549804688	842.4830322265625	208.9093627929688	-1285.499877929688	1028.671020507812	202.7633666992188	-1149.615112304688	673.2371215820312	138.0154724121094	-1126.710815429688	759.2181396484375	160.3072357177734	-1185.834228515625	754.4234008789062	212.2498626708984	-1313.954467773438	1643.572021484375	1.339922785758972	-1121.2001953125	1714.888061523438	-83.55957794189453	-1156.544067382812	1702.125732421875	36.63821411132812	-1285.370727539062	1663.738891601562	-132.3009490966797	-1263.654174804688	964.1913452148438	-226.4297332763672	-1293.85009765625	966.8617553710938	114.9097213745117	-1170.466064453125	982.0767822265625	91.5625	-1151.201293945312	975.255859375	-176.2826843261719	-1192.567993164062	502.1744995117188	-180.9264678955078	-1222.436401367188	642.2684936523438	-214.5402374267578	-1333.24169921875	53.18515014648438	-201.6554718017578	-1268.988525390625	265.7026062011719	-205.4459686279297	-1126.221557617188	45.74906539916992	-201.357421875	-1173.766967773438	45.93390274047852	-146.4357452392578	-1231.90625	42.49306106567383	-242.4499359130859	-1383.464599609375	51.96804428100586	-123.7437210083008	-1213.325439453125	520.7359619140625	103.017692565918	-1209.554931640625	793.2208251953125	126.7008819580078	-1326.942504882812	48.69342041015625	110.7704696655273	-1239.9873046875	398.8174743652344	111.677116394043	-1108.384887695312	42.71962738037109	76.85971069335938	-1170.681518554688	45.73195266723633	36.61780166625977	-1201.361572265625	52.89084625244141	129.1728363037109	-1372.814575195312	47.86849212646484	53.47526931762695	
4	0.03	-1361.956787109375	1036.777221679688	35.66556549072266	-1369.52490234375	1029.545288085938	-139.6004638671875	-1361.459228515625	1085.036743164062	-58.41073989868164	-1115.337158203125	1287.55322265625	-49.37930679321289	-1382.9853515625	1219.88427734375	-63.33096313476562	-1325.566772460938	1487.218139648438	-61.91947174072266	-1146.658935546875	1402.07470703125	-52.24444198608398	-1390.859252929688	1347.659301757812	9.692322731018066	-1340.858154296875	1449.888427734375	-165.3319244384766	-1233.1748046875	1456.244506835938	-232.4070892333984	-1245.876586914062	1328.357055664062	-311.2753295898438	-1226.015258789062	1114.732177734375	-329.2324829101562	-1290.701782226562	1098.552368164062	-245.3438262939453	-1134.937622070312	874.9664306640625	-268.7648315429688	-1193.0849609375	863.9282836914062	-328.2457885742188	-1205.493286132812	1005.52783203125	-337.7172546386719	-1125.575927734375	688.5975952148438	-249.1805267333984	-1159.0966796875	783.3056640625	-324.6549682617188	-1111.566162109375	792.7066040039062	-273.3169250488281	-1270.550537109375	1447.603637695312	117.4715805053711	-1281.196533203125	1374.941162109375	179.8799438476562	-1300.388916015625	1106.972045898438	198.0093078613281	-1284.823974609375	1089.270385742188	102.4134216308594	-1154.625366210938	859.1657104492188	160.21533203125	-1225.399291992188	842.4872436523438	209.1455688476562	-1285.534423828125	1028.677124023438	202.8871459960938	-1149.6201171875	673.1455688476562	138.3934783935547	-1126.759155273438	759.0968627929688	160.6051330566406	-1185.900756835938	754.3720703125	212.6200714111328	-1313.863525390625	1643.669921875	1.403165936470032	-1121.134643554688	1714.848022460938	-83.66208648681641	-1156.490234375	1702.151977539062	36.56113433837891	-1285.321899414062	1663.67724609375	-132.2989501953125	-1263.650268554688	964.1847534179688	-226.414794921875	-1293.889038085938	966.8668823242188	114.9313812255859	-1170.512939453125	982.0863647460938	91.59340667724609	-1151.224731445312	975.2599487304688	-176.2571868896484	-1192.560424804688	502.1757202148438	-180.9146118164062	-1222.325439453125	642.241943359375	-214.4891967773438	-1333.234252929688	53.1840934753418	-201.6558532714844	-1268.9814453125	265.7050170898438	-205.4455108642578	-1126.226684570312	45.75290679931641	-201.3596343994141	-1173.8251953125	45.97423934936523	-146.4525909423828	-1231.906005859375	42.49582290649414	-242.4523773193359	-1383.466674804688	51.96723175048828	-123.7410202026367	-1213.3037109375	520.7369995117188	103.0005798339844	-1209.50390625	793.2283935546875	126.7379913330078	-1326.940063476562	48.68109512329102	110.7814407348633	-1239.974853515625	398.8218688964844	111.6792449951172	-1108.381225585938	42.71872329711914	76.85621643066406	-1170.676635742188	45.72477340698242	36.62195587158203	-1201.398681640625	52.82176208496094	129.1270599365234	-1372.8203125	47.87057495117188	53.47986602783203	
